<svg width="44" height="44" viewBox="0 0 44 44" fill="none" xmlns="http://www.w3.org/2000/svg">
<path d="M36.069 15.806C36.069 17.6847 35.699 19.545 34.9801 21.2807C34.2611 23.0164 33.2073 24.5934 31.8789 25.9219C30.5505 27.2503 28.9734 28.3041 27.2377 29.023C25.502 29.742 23.6417 30.112 21.763 30.112C19.8843 30.112 18.024 29.742 16.2884 29.023C14.5527 28.3041 12.9756 27.2503 11.6472 25.9219C10.3187 24.5934 9.26495 23.0164 8.54601 21.2807C7.82707 19.545 7.45703 17.6847 7.45703 15.806C7.45703 12.0118 8.96427 8.37303 11.6472 5.69013C14.3301 3.00723 17.9688 1.5 21.763 1.5C25.5572 1.5 29.196 3.00723 31.8789 5.69013C34.5618 8.37303 36.069 12.0118 36.069 15.806Z" stroke="#466378" stroke-width="3"/>
<path d="M9.56303 23.2799L3.10303 34.4679L10.535 32.4979L12.545 39.9179L18.433 29.7219M33.963 23.2799L40.423 34.4679L32.991 32.4999L30.981 39.9199L25.093 29.7199M21.667 8.37395L24.201 12.7159L28.541 13.8019L25.647 17.0579L26.371 22.1239L21.667 19.9539L16.963 22.1219L17.687 17.0559L14.793 13.7999L19.133 12.7139L21.667 8.37395Z" stroke="#466378" stroke-width="3"/>
</svg>
