<svg width="32" height="32" viewBox="0 0 32 32" fill="none" xmlns="http://www.w3.org/2000/svg">
<path d="M4.84802 15.0573C4.59806 15.3074 4.45764 15.6465 4.45764 16C4.45764 16.3536 4.59806 16.6926 4.84802 16.9427L12.3907 24.4853C12.5137 24.6127 12.6608 24.7143 12.8235 24.7841C12.9862 24.854 13.1611 24.8908 13.3382 24.8923C13.5152 24.8939 13.6908 24.8601 13.8546 24.7931C14.0185 24.7261 14.1674 24.6271 14.2926 24.5019C14.4177 24.3767 14.5167 24.2278 14.5838 24.0639C14.6508 23.9001 14.6846 23.7245 14.683 23.5475C14.6815 23.3704 14.6447 23.1955 14.5748 23.0328C14.5049 22.8701 14.4034 22.723 14.276 22.6L9.00936 17.3333H26.6667C27.0203 17.3333 27.3595 17.1929 27.6095 16.9428C27.8595 16.6928 28 16.3536 28 16C28 15.6464 27.8595 15.3073 27.6095 15.0572C27.3595 14.8072 27.0203 14.6667 26.6667 14.6667L9.00936 14.6667L14.276 9.40001C14.5189 9.14854 14.6533 8.81174 14.6503 8.46214C14.6472 8.11255 14.507 7.77813 14.2598 7.53092C14.0126 7.28371 13.6782 7.14348 13.3286 7.14044C12.979 7.13741 12.6422 7.2718 12.3907 7.51468L4.84802 15.0573Z" fill="#FFFEFE"/>
</svg>
