<svg width="32" height="32" viewBox="0 0 32 32" fill="none" xmlns="http://www.w3.org/2000/svg">
<path d="M4.84808 15.0575C4.59812 15.3076 4.4577 15.6466 4.4577 16.0002C4.4577 16.3537 4.59812 16.6928 4.84808 16.9429L12.3908 24.4855C12.5137 24.6129 12.6609 24.7145 12.8235 24.7843C12.9862 24.8542 13.1612 24.891 13.3382 24.8925C13.5153 24.8941 13.6908 24.8603 13.8547 24.7933C14.0186 24.7262 14.1674 24.6272 14.2926 24.5021C14.4178 24.3769 14.5168 24.228 14.5838 24.0641C14.6509 23.9003 14.6846 23.7247 14.6831 23.5477C14.6815 23.3706 14.6448 23.1957 14.5749 23.033C14.505 22.8703 14.4034 22.7232 14.2761 22.6002L9.00942 17.3335H26.6668C27.0204 17.3335 27.3595 17.1931 27.6096 16.943C27.8596 16.693 28.0001 16.3538 28.0001 16.0002C28.0001 15.6466 27.8596 15.3074 27.6096 15.0574C27.3595 14.8073 27.0204 14.6669 26.6668 14.6669L9.00942 14.6669L14.2761 9.40019C14.519 9.14872 14.6534 8.81192 14.6503 8.46233C14.6473 8.11273 14.5071 7.77831 14.2598 7.5311C14.0126 7.28389 13.6782 7.14367 13.3286 7.14063C12.979 7.13759 12.6422 7.27198 12.3908 7.51486L4.84808 15.0575Z" fill="#466378"/>
</svg>
