<svg width="15" height="21" viewBox="0 0 15 21" fill="none" xmlns="http://www.w3.org/2000/svg">
<path d="M12 0C12.6365 0 13.247 0.252857 13.6971 0.702944C14.1471 1.15303 14.4 1.76348 14.4 2.4V18.4C14.4 19.0365 14.1471 19.647 13.6971 20.0971C13.247 20.5471 12.6365 20.8 12 20.8H2.4C1.76348 20.8 1.15303 20.5471 0.702944 20.0971C0.252856 19.647 0 19.0365 0 18.4V2.4C0 1.76348 0.252856 1.15303 0.702944 0.702944C1.15303 0.252857 1.76348 0 2.4 0H12ZM2.4 1.6C2.18783 1.6 1.98434 1.68429 1.83431 1.83431C1.68429 1.98434 1.6 2.18783 1.6 2.4V18.4C1.6 18.6122 1.68429 18.8157 1.83431 18.9657C1.98434 19.1157 2.18783 19.2 2.4 19.2H12C12.2122 19.2 12.4157 19.1157 12.5657 18.9657C12.7157 18.8157 12.8 18.6122 12.8 18.4V2.4C12.8 2.18783 12.7157 1.98434 12.5657 1.83431C12.4157 1.68429 12.2122 1.6 12 1.6H2.4ZM9.712 17.0512C9.83859 17.0769 9.9524 17.1456 10.0342 17.2456C10.1159 17.3456 10.1606 17.4708 10.1606 17.6C10.1606 17.7292 10.1159 17.8544 10.0342 17.9544C9.9524 18.0544 9.83859 18.1231 9.712 18.1488L9.6 18.16H4.8C4.65148 18.16 4.50904 18.101 4.40402 17.996C4.299 17.891 4.24 17.7485 4.24 17.6C4.24 17.4515 4.299 17.309 4.40402 17.204C4.50904 17.099 4.65148 17.04 4.8 17.04H9.6L9.712 17.0512Z" fill="white"/>
</svg>
