<svg width="25" height="29" viewBox="0 0 25 29" fill="none" xmlns="http://www.w3.org/2000/svg">
<path fill-rule="evenodd" clip-rule="evenodd" d="M3.048 0.296564L23.232 12.7166C23.5232 12.8955 23.7637 13.1461 23.9305 13.4444C24.0973 13.7427 24.1849 14.0788 24.1849 14.4206C24.1849 14.7623 24.0973 15.0984 23.9305 15.3967C23.7637 15.695 23.5232 15.9456 23.232 16.1246L3.048 28.5446C2.74491 28.731 2.39755 28.8333 2.04177 28.8407C1.68599 28.8481 1.33466 28.7605 1.02405 28.5868C0.713435 28.4132 0.454777 28.1598 0.274763 27.8528C0.0947497 27.5459 -0.000100188 27.1964 7.94134e-08 26.8406V2.00056C-0.000100188 1.6447 0.0947497 1.29526 0.274763 0.988289C0.454777 0.681318 0.713435 0.427936 1.02405 0.254285C1.33466 0.0806345 1.68599 -0.00699562 2.04177 0.000436312C2.39755 0.00786825 2.74491 0.110093 3.048 0.296564Z" fill="white"/>
</svg>
