<svg width="32" height="32" viewBox="0 0 32 32" fill="none" xmlns="http://www.w3.org/2000/svg">
<path d="M27.152 15.0575C27.4019 15.3076 27.5424 15.6466 27.5424 16.0002C27.5424 16.3537 27.4019 16.6928 27.152 16.9429L19.6093 24.4855C19.4863 24.6129 19.3392 24.7145 19.1765 24.7843C19.0138 24.8542 18.8389 24.891 18.6618 24.8925C18.4848 24.8941 18.3092 24.8603 18.1454 24.7933C17.9815 24.7262 17.8326 24.6272 17.7074 24.5021C17.5823 24.3769 17.4833 24.228 17.4162 24.0641C17.3492 23.9003 17.3154 23.7247 17.317 23.5477C17.3185 23.3706 17.3553 23.1957 17.4252 23.033C17.4951 22.8703 17.5966 22.7232 17.724 22.6002L22.9906 17.3335H5.33331C4.97969 17.3335 4.64055 17.1931 4.3905 16.943C4.14045 16.693 3.99998 16.3538 3.99998 16.0002C3.99998 15.6466 4.14045 15.3074 4.3905 15.0574C4.64055 14.8073 4.97969 14.6669 5.33331 14.6669L22.9906 14.6669L17.724 9.40019C17.4811 9.14872 17.3467 8.81192 17.3497 8.46233C17.3528 8.11273 17.493 7.77831 17.7402 7.5311C17.9874 7.28389 18.3218 7.14367 18.6714 7.14063C19.021 7.13759 19.3578 7.27198 19.6093 7.51486L27.152 15.0575Z" fill="#466378"/>
</svg>
