<svg width="32" height="32" viewBox="0 0 32 32" fill="none" xmlns="http://www.w3.org/2000/svg">
<path d="M27.152 15.0573C27.4019 15.3074 27.5424 15.6465 27.5424 16C27.5424 16.3536 27.4019 16.6926 27.152 16.9427L19.6093 24.4853C19.4863 24.6127 19.3392 24.7143 19.1765 24.7841C19.0138 24.854 18.8389 24.8908 18.6618 24.8923C18.4848 24.8939 18.3092 24.8601 18.1454 24.7931C17.9815 24.7261 17.8326 24.6271 17.7074 24.5019C17.5823 24.3767 17.4833 24.2278 17.4162 24.0639C17.3492 23.9001 17.3154 23.7245 17.317 23.5475C17.3185 23.3704 17.3553 23.1955 17.4252 23.0328C17.4951 22.8701 17.5966 22.723 17.724 22.6L22.9906 17.3333H5.33331C4.97969 17.3333 4.64055 17.1929 4.3905 16.9428C4.14045 16.6928 3.99998 16.3536 3.99998 16C3.99998 15.6464 4.14045 15.3073 4.3905 15.0572C4.64055 14.8072 4.97969 14.6667 5.33331 14.6667L22.9906 14.6667L17.724 9.40001C17.4811 9.14854 17.3467 8.81174 17.3497 8.46214C17.3528 8.11255 17.493 7.77813 17.7402 7.53092C17.9874 7.28371 18.3218 7.14348 18.6714 7.14044C19.021 7.13741 19.3578 7.2718 19.6093 7.51468L27.152 15.0573Z" fill="#FFFEFE"/>
</svg>
