<svg width="24" height="24" viewBox="0 0 24 24" fill="none" xmlns="http://www.w3.org/2000/svg">
<path d="M2.44995 11.419C2.44995 8.40204 2.74995 6.89304 3.68695 5.95604C4.62395 5.01904 6.13295 5.01904 9.14995 5.01904H14.85C17.867 5.01904 19.375 5.01904 20.313 5.95604C21.251 6.89304 21.5499 8.40204 21.5499 11.419V12.581C21.5499 15.598 21.25 17.107 20.313 18.044C19.376 18.981 17.867 18.981 14.85 18.981H9.14995C6.13295 18.981 4.62395 18.981 3.68695 18.044C2.74995 17.107 2.44995 15.598 2.44995 12.581V11.419Z" stroke="white" stroke-width="1.5" stroke-linecap="round" stroke-linejoin="round"/>
<path d="M14.686 11.4911L10.418 8.82411C10.3272 8.76734 10.2228 8.73592 10.1157 8.73312C10.0086 8.73031 9.90273 8.75623 9.80905 8.80817C9.71537 8.86012 9.6373 8.9362 9.58295 9.02851C9.52861 9.12082 9.49996 9.22599 9.5 9.33311V14.6681C9.50014 14.7751 9.52891 14.8802 9.58333 14.9724C9.63775 15.0645 9.71584 15.1405 9.80949 15.1923C9.90314 15.2441 10.009 15.2699 10.1159 15.2671C10.2229 15.2643 10.3272 15.2328 10.418 15.1761L14.686 12.5091C14.7724 12.4552 14.8436 12.3802 14.893 12.2911C14.9424 12.2021 14.9683 12.1019 14.9683 12.0001C14.9683 11.8983 14.9424 11.7981 14.893 11.7091C14.8436 11.62 14.7724 11.545 14.686 11.4911Z" stroke="white" stroke-width="1.5" stroke-linejoin="round"/>
</svg>
